<svg width="24" height="36" viewBox="0 0 24 36" fill="none" xmlns="http://www.w3.org/2000/svg">
<g clip-path="url(#clip0_168_546)">
<path d="M21.7734 12.3102L12.5578 21.3803C12.3567 21.5792 12.0853 21.6908 11.8024 21.6908C11.5196 21.6908 11.2482 21.5792 11.0471 21.3803L1.83143 12.3122C1.6291 12.1134 1.35679 12.002 1.07312 12.002C0.789463 12.002 0.517148 12.1134 0.314826 12.3122C0.215197 12.4093 0.13602 12.5254 0.0819578 12.6536C0.0278958 12.7818 4.29131e-05 12.9196 4.2901e-05 13.0587C4.28888e-05 13.1978 0.0278958 13.3356 0.0819578 13.4638C0.13602 13.592 0.215197 13.7081 0.314826 13.8052L9.52852 22.8733C10.1354 23.4692 10.9519 23.803 11.8024 23.803C12.6529 23.803 13.4695 23.4692 14.0764 22.8733L23.29 13.8052C23.39 13.708 23.4694 13.5918 23.5236 13.4634C23.5779 13.335 23.6058 13.1971 23.6058 13.0577C23.6058 12.9183 23.5779 12.7804 23.5236 12.652C23.4694 12.5236 23.39 12.4074 23.29 12.3102C23.0877 12.1114 22.8154 12 22.5317 12C22.2481 12 21.9758 12.1114 21.7734 12.3102Z" fill="#560FA9"/>
<path d="M21.7734 24.3102L12.5578 33.3803C12.3567 33.5792 12.0853 33.6908 11.8024 33.6908C11.5196 33.6908 11.2482 33.5792 11.0471 33.3803L1.83143 24.3122C1.6291 24.1134 1.35679 24.002 1.07312 24.002C0.789463 24.002 0.517148 24.1134 0.314826 24.3122C0.215197 24.4093 0.13602 24.5254 0.0819578 24.6536C0.0278958 24.7818 4.29131e-05 24.9196 4.2901e-05 25.0587C4.28888e-05 25.1978 0.0278958 25.3356 0.0819578 25.4638C0.13602 25.592 0.215197 25.7081 0.314826 25.8052L9.52852 34.8733C10.1354 35.4692 10.9519 35.803 11.8024 35.803C12.6529 35.803 13.4695 35.4692 14.0764 34.8733L23.29 25.8052C23.39 25.708 23.4694 25.5918 23.5236 25.4634C23.5779 25.335 23.6058 25.1971 23.6058 25.0577C23.6058 24.9183 23.5779 24.7804 23.5236 24.652C23.4694 24.5236 23.39 24.4074 23.29 24.3102C23.0877 24.1114 22.8154 24 22.5317 24C22.2481 24 21.9758 24.1114 21.7734 24.3102Z" fill="#560FA9"/>
<path d="M21.7734 0.310224L12.5578 9.38032C12.3567 9.57925 12.0853 9.69082 11.8024 9.69082C11.5196 9.69082 11.2482 9.57925 11.0471 9.38032L1.83143 0.312191C1.6291 0.113369 1.35679 0.00196262 1.07312 0.0019626C0.789463 0.00196257 0.517148 0.113369 0.314826 0.312191C0.215197 0.409318 0.13602 0.525406 0.0819578 0.653612C0.0278958 0.781818 4.29131e-05 0.91955 4.2901e-05 1.05869C4.28888e-05 1.19783 0.0278958 1.33556 0.0819578 1.46376C0.13602 1.59197 0.215197 1.70806 0.314826 1.80519L9.52852 10.8733C10.1354 11.4692 10.9519 11.803 11.8024 11.803C12.6529 11.803 13.4695 11.4692 14.0764 10.8733L23.29 1.80519C23.39 1.70803 23.4694 1.59182 23.5236 1.46343C23.5779 1.33504 23.6058 1.19708 23.6058 1.05771C23.6058 0.918331 23.5779 0.780371 23.5236 0.651982C23.4694 0.523594 23.39 0.407383 23.29 0.310225C23.0877 0.111403 22.8154 -3.8838e-06 22.5317 -3.9086e-06C22.2481 -3.9334e-06 21.9758 0.111403 21.7734 0.310224Z" fill="#560FA9"/>
</g>
<defs>
<clipPath id="clip0_168_546">
<rect width="24" height="36" fill="white"/>
</clipPath>
</defs>
</svg>
