<svg viewBox="53.775 50.776 390.457 385.513" width="390.457" height="385.513" xmlns="http://www.w3.org/2000/svg">
  <path d="M 84.092 240.878 L 236.514 90.854 C 239.839 87.563 244.339 85.726 249.02 85.726 C 253.7 85.726 258.182 87.563 261.508 90.854 L 413.946 240.846 C 417.288 244.137 421.787 245.989 426.485 245.989 C 431.182 245.989 435.681 244.137 439.022 240.846 C 440.677 239.241 441.984 237.322 442.876 235.204 C 443.77 233.088 444.232 230.804 444.232 228.506 C 444.232 226.207 443.77 223.925 442.876 221.807 C 441.984 219.69 440.677 217.756 439.022 216.151 L 286.634 66.158 C 276.592 56.302 263.079 50.776 249.02 50.776 C 234.943 50.776 221.446 56.302 211.406 66.158 L 59 216.151 C 57.347 217.756 56.04 219.69 55.147 221.807 C 54.237 223.925 53.775 226.207 53.775 228.522 C 53.775 230.822 54.237 233.104 55.147 235.238 C 56.04 237.354 57.347 239.273 59 240.878 C 62.342 244.17 66.858 246.006 71.539 246.006 C 76.237 246.006 80.736 244.17 84.092 240.878 Z" fill="#560FA9" style="" transform="matrix(1, 0, 0, 1, 2.842170943040401e-14, 0)"/>
  <path d="M 84.092 431.16 L 236.514 281.138 C 239.839 277.846 244.339 276.012 249.02 276.012 C 253.7 276.012 258.182 277.846 261.508 281.138 L 413.946 431.129 C 417.288 434.42 421.787 436.273 426.485 436.273 C 431.182 436.273 435.681 434.42 439.022 431.129 C 440.677 429.524 441.984 427.605 442.876 425.488 C 443.77 423.371 444.232 421.088 444.232 418.789 C 444.232 416.489 443.77 414.207 442.876 412.089 C 441.984 409.973 440.677 408.038 439.022 406.434 L 286.634 256.444 C 276.592 246.585 263.079 241.059 249.02 241.059 C 234.943 241.059 221.446 246.585 211.406 256.444 L 59 406.434 C 57.347 408.038 56.04 409.973 55.147 412.089 C 54.237 414.207 53.775 416.489 53.775 418.805 C 53.775 421.105 54.237 423.387 55.147 425.521 C 56.04 427.639 57.347 429.558 59 431.16 C 62.342 434.454 66.858 436.289 71.539 436.289 C 76.237 436.289 80.736 434.454 84.092 431.16 Z" fill="#560FA9" style="" transform="matrix(1, 0, 0, 1, 2.842170943040401e-14, 0)"/>
</svg>