<svg width="500" height="500" viewBox="0 0 500 500" fill="none" xmlns="http://www.w3.org/2000/svg">
<g clip-path="url(#clip0_51_518)">
<path d="M414.89 0H85.11C38.105 0 0 38.105 0 85.11V414.89C0 461.895 38.105 500 85.11 500H414.89C461.895 500 500 461.895 500 414.89V85.11C500 38.105 461.895 0 414.89 0Z" fill="#560FA9"/>
<path d="M84.78 370.9C84.78 391.1 102.85 407.44 125.18 407.44" stroke="#FFA500" stroke-width="15" stroke-miterlimit="10" stroke-linecap="round"/>
<path d="M84.78 129.1C84.78 108.9 102.85 92.5601 125.18 92.5601" stroke="#FFA500" stroke-width="15" stroke-miterlimit="10" stroke-linecap="round"/>
<path d="M415.22 370.9C415.22 391.1 397.15 407.44 374.82 407.44" stroke="#FFA500" stroke-width="15" stroke-miterlimit="10" stroke-linecap="round"/>
<path d="M415.22 129.1C415.22 108.9 397.15 92.5601 374.82 92.5601" stroke="#FFA500" stroke-width="15" stroke-miterlimit="10" stroke-linecap="round"/>
<path d="M161.11 134L211.05 142.28C212.481 142.518 213.76 143.313 214.605 144.493C215.451 145.672 215.794 147.138 215.56 148.57L175.56 390.1L114.8 380L154.8 138.46C155.04 137.028 155.838 135.751 157.019 134.907C158.201 134.063 159.668 133.723 161.1 133.96L161.11 134Z" fill="#A26BF2"/>
<path d="M225.52 101.16H285.42C286.138 101.16 286.85 101.302 287.513 101.577C288.177 101.851 288.78 102.254 289.288 102.762C289.796 103.27 290.199 103.873 290.474 104.537C290.749 105.201 290.89 105.912 290.89 106.63V389.17H220.05V106.63C220.05 105.179 220.626 103.788 221.652 102.762C222.678 101.736 224.069 101.16 225.52 101.16Z" fill="white"/>
<path d="M311.34 143.43H367.54C368.989 143.433 370.378 144.01 371.402 145.036C372.425 146.061 373 147.451 373 148.9V389.17H305.87V148.9C305.87 147.449 306.446 146.058 307.472 145.032C308.498 144.006 309.889 143.43 311.34 143.43Z" fill="white"/>
</g>
<defs>
<clipPath id="clip0_51_518">
<rect width="500" height="500" fill="white"/>
</clipPath>
</defs>
</svg>
